<svg xmlns="http://www.w3.org/2000/svg" xmlns:xlink="http://www.w3.org/1999/xlink" width="1250" height="455.91"><rect width="1250" height="455.91" rx="0" ry="0" class="a"/><svg height="455.91" viewBox="0 0 125 45.591" width="1250" xmlns="http://www.w3.org/2000/svg" xmlns:xlink="http://www.w3.org/1999/xlink"><style>@keyframes i{0%{transform:translateX(0)}1.2%{transform:translateX(-125px)}1.3%{transform:translateX(-750px)}1.5%{transform:translateX(-875px)}16.5%{transform:translateX(-1000px)}21%{transform:translateX(-1125px)}21.4%{transform:translateX(-1250px)}22%{transform:translateX(-1375px)}22.8%{transform:translateX(-1500px)}23.9%{transform:translateX(-1625px)}30.1%{transform:translateX(-1750px)}30.7%{transform:translateX(-1875px)}30.9%{transform:translateX(-2000px)}33.1%{transform:translateX(-2125px)}34.3%{transform:translateX(-2250px)}35.4%{transform:translateX(-2375px)}36.2%{transform:translateX(-2500px)}38.1%{transform:translateX(-2625px)}40.4%{transform:translateX(-2750px)}45.8%{transform:translateX(-3250px)}61.6%{transform:translateX(-3500px)}61.7%{transform:translateX(-3750px)}61.9%{transform:translateX(-4250px)}62%{transform:translateX(-4750px)}62.1%{transform:translateX(-5250px)}62.2%{transform:translateX(-5625px)}62.3%{transform:translateX(-6000px)}62.4%{transform:translateX(-6375px)}67.4%{transform:translateX(-6500px)}67.5%{transform:translateX(-6625px)}67.6%{transform:translateX(-6750px)}68.2%{transform:translateX(-6875px)}to{transform:translateX(-7000px)}}.a{fill:#282d35}.c,.e,.f{fill:#b9c0cb;white-space:pre}.e,.f{fill:#66c2cd;font-weight:700}.f{fill:#dbab79}</style><g font-family="Monaco,Consolas,Menlo,'Bitstream Vera Sans Mono','Powerline Symbols',monospace" font-size="1.67"><defs><symbol id="1"><text y="1.67" class="c">Start</text><text x="6.012" y="1.67" class="c">SSH</text><text x="10.02" y="1.67" class="c">Agent</text><text x="16.032" y="1.67" class="c">...Agent</text><text x="25.05" y="1.67" class="c">pid</text><text x="29.058" y="1.67" class="c">258110</text></symbol><symbol id="2"><text y="1.67" class="c">done.</text></symbol><symbol id="3"><text y="1.67" class="c">Adding</text><text x="7.014" y="1.67" class="c">ssh</text><text x="11.022" y="1.67" class="c">key...Identity</text><text x="26.052" y="1.67" class="c">added:</text><text x="33.066" y="1.67" class="c">/home/claudiol/.ssh/id_rsa</text><text x="60.12" y="1.67" class="c">(claudiol@fedora.redhat.local)</text></symbol><symbol id="4"><text y="1.67" style="white-space:pre" fill="#a8cc8c" font-weight="700">claudiol@fedora</text><text x="15.03" y="1.67" class="c">:</text><text x="16.032" y="1.67" class="e">medical-diagnosis</text><text x="34.068" y="1.67" class="f">(claudiol-xray-deployment</text><text x="60.12" y="1.67" class="f">+%</text><text x="63.126" y="1.67" class="f">u=</text><text x="66.132" y="1.67" class="f">origin/claudiol-xray-deployment)</text></symbol><symbol id="5"><text y="1.67" class="c">$</text></symbol><symbol id="6"><text y="1.67" class="c">$</text><text x="2.004" y="1.67" class="c">make</text></symbol><symbol id="7"><text y="1.67" class="c">$</text><text x="2.004" y="1.67" class="c">make</text><text x="7.014" y="1.67" class="c">predeploy</text></symbol><symbol id="8"><text y="1.67" class="c">./scripts/precheck.sh</text></symbol><symbol id="9"><text y="1.67" class="e">Checking</text><text x="9.018" y="1.67" class="e">values-global.yaml</text><text x="28.056" y="1.67" class="e">settingsare</text><text x="40.08" y="1.67" class="e">set</text><text x="44.088" y="1.67" class="e">...</text></symbol><symbol id="10"><text y="1.67" class="e">Verifying</text><text x="10.02" y="1.67" class="e">clustername</text><text x="22.044" y="1.67" class="e">and</text><text x="26.052" y="1.67" class="e">domain</text><text x="33.066" y="1.67" class="e">values:</text><text x="41.082" y="1.67" class="c">pass</text></symbol><symbol id="11"><text y="1.67" class="e">Verifying</text><text x="10.02" y="1.67" class="e">externalUrl</text><text x="22.044" y="1.67" class="e">value:</text><text x="29.058" y="1.67" class="c">pass</text></symbol><symbol id="12"><text y="1.67" class="e">Checking</text><text x="9.018" y="1.67" class="e">file</text><text x="14.028" y="1.67" class="e">for</text><text x="18.036" y="1.67" class="e">values-secret.yaml:</text><text x="38.076" y="1.67" class="c">pass</text></symbol><symbol id="13"><text y="1.67" class="e">Check</text><text x="6.012" y="1.67" class="e">that</text><text x="11.022" y="1.67" class="e">required</text><text x="20.04" y="1.67" class="e">secrets</text><text x="28.056" y="1.67" class="e">sections</text><text x="37.074" y="1.67" class="e">exist</text><text x="43.086" y="1.67" class="e">in</text><text x="46.092" y="1.67" class="e">values-secret.yaml</text></symbol><symbol id="14"><text y="1.67" class="e">Checking</text><text x="9.018" y="1.67" class="e">for</text><text x="13.026" y="1.67" class="e">xraylab</text><text x="21.042" y="1.67" class="e">sections:</text></symbol><symbol id="15"><text y="1.67" class="e">Checking</text><text x="9.018" y="1.67" class="e">[secrets:]</text><text x="20.04" y="1.67" class="e">...</text><text x="24.048" y="1.67" class="c">pass</text></symbol><symbol id="16"><text y="1.67" class="e">Checking</text><text x="9.018" y="1.67" class="e">[xraylab:]</text><text x="20.04" y="1.67" class="e">...</text><text x="24.048" y="1.67" class="c">pass</text></symbol><symbol id="17"><text y="1.67" class="e">Checking</text><text x="9.018" y="1.67" class="e">[db:]</text><text x="15.03" y="1.67" class="e">...</text><text x="19.038" y="1.67" class="c">pass</text></symbol><symbol id="18"><text y="1.67" class="e">Checking</text><text x="9.018" y="1.67" class="e">[db_user]</text><text x="19.038" y="1.67" class="e">...</text><text x="23.046" y="1.67" class="c">pass</text></symbol><symbol id="19"><text y="1.67" class="e">Checking</text><text x="9.018" y="1.67" class="e">[dn_passwd]</text><text x="21.042" y="1.67" class="e">...</text><text x="25.05" y="1.67" class="c">pass</text></symbol><symbol id="20"><text y="1.67" class="e">Checking</text><text x="9.018" y="1.67" class="e">[db_root_passwd]</text><text x="26.052" y="1.67" class="e">...</text><text x="30.06" y="1.67" class="c">pass</text></symbol><symbol id="21"><text y="1.67" class="e">Checking</text><text x="9.018" y="1.67" class="e">[db_host]</text><text x="19.038" y="1.67" class="e">...</text><text x="23.046" y="1.67" class="c">pass</text></symbol><symbol id="22"><text y="1.67" class="e">Checking</text><text x="9.018" y="1.67" class="e">[db_dbname]</text><text x="21.042" y="1.67" class="e">...</text><text x="25.05" y="1.67" class="c">pass</text></symbol><symbol id="23"><text y="1.67" class="e">Checking</text><text x="9.018" y="1.67" class="e">[db_master_password]</text><text x="30.06" y="1.67" class="e">...</text><text x="34.068" y="1.67" class="c">pass</text></symbol><symbol id="24"><text y="1.67" class="e">Checking</text><text x="9.018" y="1.67" class="e">[db_master_user]</text><text x="26.052" y="1.67" class="e">...</text><text x="30.06" y="1.67" class="c">pass</text></symbol><symbol id="25"><text y="1.67" class="e">Proceeding</text><text x="11.022" y="1.67" class="e">with</text><text x="16.032" y="1.67" class="e">the</text><text x="20.04" y="1.67" class="e">following</text><text x="30.06" y="1.67" class="e">values</text><text x="37.074" y="1.67" class="e">specified</text><text x="47.094" y="1.67" class="e">in</text><text x="50.1" y="1.67" class="e">values-global.yaml:</text></symbol><symbol id="26"><text x="2.004" y="1.67" class="c">datacenter:</text></symbol><symbol id="27"><text x="4.008" y="1.67" class="c">clustername:</text><text x="17.034" y="1.67" class="c">claudiol-xray</text></symbol><symbol id="28"><text x="4.008" y="1.67" class="c">domain:</text><text x="12.024" y="1.67" class="c">blueprints.rhecoeng.com</text></symbol><symbol id="29"><text x="6.012" y="1.67" class="c">externalUrl:</text><text x="19.038" y="1.67" class="c">&quot;https://s3-rgw-openshift-storage.apps.claudiol-xray.blueprints.rhecoeng.com&quot;</text></symbol><symbol id="30"><text x="6.012" y="1.67" class="c">bucketSource:</text><text x="20.04" y="1.67" class="c">&quot;https://s3.us-west-1.amazonaws.com/com.redhat.claudiol.xray-source&quot;</text></symbol><symbol id="31"><text y="1.67" class="e">Proceed</text><text x="8.016" y="1.67" class="e">(Y/n)?</text><text x="15.03" y="1.67" class="c">y</text></symbol><symbol id="32"><text x="16.032" y="1.67" class="c">claudiol@fedora:</text><text x="32.064" y="1.67" class="e">medical-diagnosis</text><text x="50.1" y="1.67" class="f">(claudiol-xray-deployment</text><text x="76.152" y="1.67" class="f">+%</text><text x="79.158" y="1.67" class="f">u=</text><text x="82.164" y="1.67" class="f">origin/claudiol-xray-deployment)</text></symbol><symbol id="a"><path fill="transparent" d="M0 0h125v21H0z"/></symbol><symbol id="b"><path fill="#6f7683" d="M0 0h1.102v2.171H0z"/></symbol></defs><path class="a" d="M0 0h125v45.591H0z"/><g style="animation-duration:12.109512s;animation-iteration-count:infinite;animation-name:i;animation-timing-function:steps(1,end)"><svg width="7125"><svg><use xlink:href="#a"/><use xlink:href="#b" x="-.004"/></svg><svg x="125"><use xlink:href="#a"/><use xlink:href="#b" x="18.996"/><text y="1.67" class="c">Start</text><text x="6.012" y="1.67" class="c">SSH</text><text x="10.02" y="1.67" class="c">Agent</text><text x="16.032" y="1.67" class="c">...</text></svg><svg x="250"><use xlink:href="#a"/><use xlink:href="#b" x="16.996" y="4.317"/><use xlink:href="#1"/><use xlink:href="#2" y="2.171"/><text y="6.012" class="c">Adding</text><text x="7.014" y="6.012" class="c">ssh</text><text x="11.022" y="6.012" class="c">key...</text></svg><svg x="375"><use xlink:href="#a"/><use xlink:href="#b" x="-.004" y="6.488"/><use xlink:href="#1"/><use xlink:href="#2" y="2.171"/><use xlink:href="#3" y="4.342"/></svg><svg x="500"><use xlink:href="#a"/><use xlink:href="#b" x="-.004" y="8.659"/><use xlink:href="#1"/><use xlink:href="#2" y="2.171"/><use xlink:href="#3" y="4.342"/><use xlink:href="#2" y="6.513"/></svg><svg x="625"><use xlink:href="#a"/><use xlink:href="#b" x="-.004" y="8.659"/><use xlink:href="#1"/><use xlink:href="#2" y="2.171"/><use xlink:href="#3" y="4.342"/><use xlink:href="#2" y="6.513"/></svg><svg x="750"><use xlink:href="#a"/><use xlink:href="#b" x="-.004" y="8.659"/><use xlink:href="#1"/><use xlink:href="#2" y="2.171"/><use xlink:href="#3" y="4.342"/><use xlink:href="#2" y="6.513"/></svg><svg x="875"><use xlink:href="#a"/><use xlink:href="#b" x="1.996" y="10.83"/><use xlink:href="#1"/><use xlink:href="#2" y="2.171"/><use xlink:href="#3" y="4.342"/><use xlink:href="#2" y="6.513"/><use xlink:href="#4" y="8.684"/><use xlink:href="#5" y="10.855"/></svg><svg x="1000"><use xlink:href="#a"/><use xlink:href="#b" x="1.996" y="2.146"/><use xlink:href="#4"/><use xlink:href="#5" y="2.171"/></svg><svg x="1125"><use xlink:href="#a"/><use xlink:href="#b" x="2.996" y="2.146"/><use xlink:href="#4"/><text y="3.841" class="c">$</text><text x="2.004" y="3.841" class="c">m</text></svg><svg x="1250"><use xlink:href="#a"/><use xlink:href="#b" x="3.996" y="2.146"/><use xlink:href="#4"/><text y="3.841" class="c">$</text><text x="2.004" y="3.841" class="c">ma</text></svg><svg x="1375"><use xlink:href="#a"/><use xlink:href="#b" x="4.996" y="2.146"/><use xlink:href="#4"/><text y="3.841" class="c">$</text><text x="2.004" y="3.841" class="c">mak</text></svg><svg x="1500"><use xlink:href="#a"/><use xlink:href="#b" x="5.996" y="2.146"/><use xlink:href="#4"/><use xlink:href="#6" y="2.171"/></svg><svg x="1625"><use xlink:href="#a"/><use xlink:href="#b" x="6.996" y="2.146"/><use xlink:href="#4"/><use xlink:href="#6" y="2.171"/></svg><svg x="1750"><use xlink:href="#a"/><use xlink:href="#b" x="7.996" y="2.146"/><use xlink:href="#4"/><text y="3.841" class="c">$</text><text x="2.004" y="3.841" class="c">make</text><text x="7.014" y="3.841" class="c">p</text></svg><svg x="1875"><use xlink:href="#a"/><use xlink:href="#b" x="8.996" y="2.146"/><use xlink:href="#4"/><text y="3.841" class="c">$</text><text x="2.004" y="3.841" class="c">make</text><text x="7.014" y="3.841" class="c">pr</text></svg><svg x="2000"><use xlink:href="#a"/><use xlink:href="#b" x="9.996" y="2.146"/><use xlink:href="#4"/><text y="3.841" class="c">$</text><text x="2.004" y="3.841" class="c">make</text><text x="7.014" y="3.841" class="c">pre</text></svg><svg x="2125"><use xlink:href="#a"/><use xlink:href="#b" x="10.996" y="2.146"/><use xlink:href="#4"/><text y="3.841" class="c">$</text><text x="2.004" y="3.841" class="c">make</text><text x="7.014" y="3.841" class="c">pred</text></svg><svg x="2250"><use xlink:href="#a"/><use xlink:href="#b" x="11.996" y="2.146"/><use xlink:href="#4"/><text y="3.841" class="c">$</text><text x="2.004" y="3.841" class="c">make</text><text x="7.014" y="3.841" class="c">prede</text></svg><svg x="2375"><use xlink:href="#a"/><use xlink:href="#b" x="12.996" y="2.146"/><use xlink:href="#4"/><text y="3.841" class="c">$</text><text x="2.004" y="3.841" class="c">make</text><text x="7.014" y="3.841" class="c">predep</text></svg><svg x="2500"><use xlink:href="#a"/><use xlink:href="#b" x="13.996" y="2.146"/><use xlink:href="#4"/><text y="3.841" class="c">$</text><text x="2.004" y="3.841" class="c">make</text><text x="7.014" y="3.841" class="c">predepl</text></svg><svg x="2625"><use xlink:href="#a"/><use xlink:href="#b" x="14.996" y="2.146"/><use xlink:href="#4"/><text y="3.841" class="c">$</text><text x="2.004" y="3.841" class="c">make</text><text x="7.014" y="3.841" class="c">predeplo</text></svg><svg x="2750"><use xlink:href="#a"/><use xlink:href="#b" x="15.996" y="2.146"/><use xlink:href="#4"/><use xlink:href="#7" y="2.171"/></svg><svg x="2875"><use xlink:href="#a"/><use xlink:href="#b" x="-.004" y="4.317"/><use xlink:href="#4"/><use xlink:href="#7" y="2.171"/></svg><svg x="3000"><use xlink:href="#a"/><use xlink:href="#b" x="-.004" y="4.317"/><use xlink:href="#4"/><use xlink:href="#7" y="2.171"/></svg><svg x="3125"><use xlink:href="#a"/><use xlink:href="#b" x="-.004" y="6.488"/><use xlink:href="#4"/><use xlink:href="#7" y="2.171"/><use xlink:href="#8" y="4.342"/></svg><svg x="3250"><use xlink:href="#a"/><use xlink:href="#b" x="47.996" y="6.488"/><use xlink:href="#4"/><use xlink:href="#7" y="2.171"/><use xlink:href="#8" y="4.342"/><text y="8.183" class="e">Making</text><text x="7.014" y="8.183" class="e">sure</text><text x="12.024" y="8.183" class="e">that</text><text x="17.034" y="8.183" class="e">required</text><text x="26.052" y="8.183" class="e">variables</text><text x="36.072" y="8.183" class="e">are</text><text x="40.08" y="8.183" class="e">set</text><text x="44.088" y="8.183" class="e">...</text></svg><svg x="3375"><use xlink:href="#a"/><use xlink:href="#b" x="-.004" y="8.659"/><use xlink:href="#4"/><use xlink:href="#7" y="2.171"/><use xlink:href="#8" y="4.342"/><use xlink:href="#9" y="6.513"/></svg><svg x="3500"><use xlink:href="#a"/><use xlink:href="#b" x="40.996" y="8.659"/><use xlink:href="#4"/><use xlink:href="#7" y="2.171"/><use xlink:href="#8" y="4.342"/><use xlink:href="#9" y="6.513"/><text y="10.354" class="e">Verifying</text><text x="10.02" y="10.354" class="e">clustername</text><text x="22.044" y="10.354" class="e">and</text><text x="26.052" y="10.354" class="e">domain</text><text x="33.066" y="10.354" class="e">values:</text></svg><svg x="3625"><use xlink:href="#a"/><use xlink:href="#b" x="-.004" y="10.83"/><use xlink:href="#4"/><use xlink:href="#7" y="2.171"/><use xlink:href="#8" y="4.342"/><use xlink:href="#9" y="6.513"/><use xlink:href="#10" y="8.684"/></svg><svg x="3750"><use xlink:href="#a"/><use xlink:href="#b" x="28.996" y="10.83"/><use xlink:href="#4"/><use xlink:href="#7" y="2.171"/><use xlink:href="#8" y="4.342"/><use xlink:href="#9" y="6.513"/><use xlink:href="#10" y="8.684"/><text y="12.525" class="e">Verifying</text><text x="10.02" y="12.525" class="e">externalUrl</text><text x="22.044" y="12.525" class="e">value:</text></svg><svg x="3875"><use xlink:href="#a"/><use xlink:href="#b" x="-.004" y="15.172"/><use xlink:href="#4"/><use xlink:href="#7" y="2.171"/><use xlink:href="#8" y="4.342"/><use xlink:href="#9" y="6.513"/><use xlink:href="#10" y="8.684"/><use xlink:href="#11" y="10.855"/><use xlink:href="#12" y="13.026"/></svg><svg x="4000"><use xlink:href="#a"/><use xlink:href="#b" x="23.996" y="19.514"/><use xlink:href="#4"/><use xlink:href="#7" y="2.171"/><use xlink:href="#8" y="4.342"/><use xlink:href="#9" y="6.513"/><use xlink:href="#10" y="8.684"/><use xlink:href="#11" y="10.855"/><use xlink:href="#12" y="13.026"/><use xlink:href="#13" y="15.197"/><use xlink:href="#14" y="17.368"/><text y="21.209" class="e">Checking</text><text x="9.018" y="21.209" class="e">[secrets:]</text><text x="20.04" y="21.209" class="e">...</text></svg><svg x="4125"><use xlink:href="#a"/><use xlink:href="#b" x="-.004" y="21.685"/><use xlink:href="#4"/><use xlink:href="#7" y="2.171"/><use xlink:href="#8" y="4.342"/><use xlink:href="#9" y="6.513"/><use xlink:href="#10" y="8.684"/><use xlink:href="#11" y="10.855"/><use xlink:href="#12" y="13.026"/><use xlink:href="#13" y="15.197"/><use xlink:href="#14" y="17.368"/><use xlink:href="#15" y="19.539"/></svg><svg x="4250"><use xlink:href="#a"/><use xlink:href="#b" x="23.996" y="21.685"/><use xlink:href="#4"/><use xlink:href="#7" y="2.171"/><use xlink:href="#8" y="4.342"/><use xlink:href="#9" y="6.513"/><use xlink:href="#10" y="8.684"/><use xlink:href="#11" y="10.855"/><use xlink:href="#12" y="13.026"/><use xlink:href="#13" y="15.197"/><use xlink:href="#14" y="17.368"/><use xlink:href="#15" y="19.539"/><text y="23.38" class="e">Checking</text><text x="9.018" y="23.38" class="e">[xraylab:]</text><text x="20.04" y="23.38" class="e">...</text></svg><svg x="4375"><use xlink:href="#a"/><use xlink:href="#b" x="-.004" y="23.856"/><use xlink:href="#4"/><use xlink:href="#7" y="2.171"/><use xlink:href="#8" y="4.342"/><use xlink:href="#9" y="6.513"/><use xlink:href="#10" y="8.684"/><use xlink:href="#11" y="10.855"/><use xlink:href="#12" y="13.026"/><use xlink:href="#13" y="15.197"/><use xlink:href="#14" y="17.368"/><use xlink:href="#15" y="19.539"/><use xlink:href="#16" y="21.71"/></svg><svg x="4500"><use xlink:href="#a"/><use xlink:href="#b" x="18.996" y="23.856"/><use xlink:href="#4"/><use xlink:href="#7" y="2.171"/><use xlink:href="#8" y="4.342"/><use xlink:href="#9" y="6.513"/><use xlink:href="#10" y="8.684"/><use xlink:href="#11" y="10.855"/><use xlink:href="#12" y="13.026"/><use xlink:href="#13" y="15.197"/><use xlink:href="#14" y="17.368"/><use xlink:href="#15" y="19.539"/><use xlink:href="#16" y="21.71"/><text y="25.551" class="e">Checking</text><text x="9.018" y="25.551" class="e">[db:]</text><text x="15.03" y="25.551" class="e">...</text></svg><svg x="4625"><use xlink:href="#a"/><use xlink:href="#b" x="22.996" y="26.027"/><use xlink:href="#4"/><use xlink:href="#7" y="2.171"/><use xlink:href="#8" y="4.342"/><use xlink:href="#9" y="6.513"/><use xlink:href="#10" y="8.684"/><use xlink:href="#11" y="10.855"/><use xlink:href="#12" y="13.026"/><use xlink:href="#13" y="15.197"/><use xlink:href="#14" y="17.368"/><use xlink:href="#15" y="19.539"/><use xlink:href="#16" y="21.71"/><use xlink:href="#17" y="23.881"/><text y="27.722" class="e">Checking</text><text x="9.018" y="27.722" class="e">[db_user]</text><text x="19.038" y="27.722" class="e">...</text></svg><svg x="4750"><use xlink:href="#a"/><use xlink:href="#b" x="-.004" y="28.198"/><use xlink:href="#4"/><use xlink:href="#7" y="2.171"/><use xlink:href="#8" y="4.342"/><use xlink:href="#9" y="6.513"/><use xlink:href="#10" y="8.684"/><use xlink:href="#11" y="10.855"/><use xlink:href="#12" y="13.026"/><use xlink:href="#13" y="15.197"/><use xlink:href="#14" y="17.368"/><use xlink:href="#15" y="19.539"/><use xlink:href="#16" y="21.71"/><use xlink:href="#17" y="23.881"/><use xlink:href="#18" y="26.052"/></svg><svg x="4875"><use xlink:href="#a"/><use xlink:href="#b" x="24.996" y="28.198"/><use xlink:href="#4"/><use xlink:href="#7" y="2.171"/><use xlink:href="#8" y="4.342"/><use xlink:href="#9" y="6.513"/><use xlink:href="#10" y="8.684"/><use xlink:href="#11" y="10.855"/><use xlink:href="#12" y="13.026"/><use xlink:href="#13" y="15.197"/><use xlink:href="#14" y="17.368"/><use xlink:href="#15" y="19.539"/><use xlink:href="#16" y="21.71"/><use xlink:href="#17" y="23.881"/><use xlink:href="#18" y="26.052"/><text y="29.893" class="e">Checking</text><text x="9.018" y="29.893" class="e">[dn_passwd]</text><text x="21.042" y="29.893" class="e">...</text></svg><svg x="5000"><use xlink:href="#a"/><use xlink:href="#b" x="29.996" y="30.369"/><use xlink:href="#4"/><use xlink:href="#7" y="2.171"/><use xlink:href="#8" y="4.342"/><use xlink:href="#9" y="6.513"/><use xlink:href="#10" y="8.684"/><use xlink:href="#11" y="10.855"/><use xlink:href="#12" y="13.026"/><use xlink:href="#13" y="15.197"/><use xlink:href="#14" y="17.368"/><use xlink:href="#15" y="19.539"/><use xlink:href="#16" y="21.71"/><use xlink:href="#17" y="23.881"/><use xlink:href="#18" y="26.052"/><use xlink:href="#19" y="28.223"/><text y="32.064" class="e">Checking</text><text x="9.018" y="32.064" class="e">[db_root_passwd]</text><text x="26.052" y="32.064" class="e">...</text></svg><svg x="5125"><use xlink:href="#a"/><use xlink:href="#b" x="-.004" y="32.54"/><use xlink:href="#4"/><use xlink:href="#7" y="2.171"/><use xlink:href="#8" y="4.342"/><use xlink:href="#9" y="6.513"/><use xlink:href="#10" y="8.684"/><use xlink:href="#11" y="10.855"/><use xlink:href="#12" y="13.026"/><use xlink:href="#13" y="15.197"/><use xlink:href="#14" y="17.368"/><use xlink:href="#15" y="19.539"/><use xlink:href="#16" y="21.71"/><use xlink:href="#17" y="23.881"/><use xlink:href="#18" y="26.052"/><use xlink:href="#19" y="28.223"/><use xlink:href="#20" y="30.394"/></svg><svg x="5250"><use xlink:href="#a"/><use xlink:href="#b" x="22.996" y="32.54"/><use xlink:href="#4"/><use xlink:href="#7" y="2.171"/><use xlink:href="#8" y="4.342"/><use xlink:href="#9" y="6.513"/><use xlink:href="#10" y="8.684"/><use xlink:href="#11" y="10.855"/><use xlink:href="#12" y="13.026"/><use xlink:href="#13" y="15.197"/><use xlink:href="#14" y="17.368"/><use xlink:href="#15" y="19.539"/><use xlink:href="#16" y="21.71"/><use xlink:href="#17" y="23.881"/><use xlink:href="#18" y="26.052"/><use xlink:href="#19" y="28.223"/><use xlink:href="#20" y="30.394"/><text y="34.235" class="e">Checking</text><text x="9.018" y="34.235" class="e">[db_host]</text><text x="19.038" y="34.235" class="e">...</text></svg><svg x="5375"><use xlink:href="#a"/><use xlink:href="#b" x="-.004" y="34.711"/><use xlink:href="#4"/><use xlink:href="#7" y="2.171"/><use xlink:href="#8" y="4.342"/><use xlink:href="#9" y="6.513"/><use xlink:href="#10" y="8.684"/><use xlink:href="#11" y="10.855"/><use xlink:href="#12" y="13.026"/><use xlink:href="#13" y="15.197"/><use xlink:href="#14" y="17.368"/><use xlink:href="#15" y="19.539"/><use xlink:href="#16" y="21.71"/><use xlink:href="#17" y="23.881"/><use xlink:href="#18" y="26.052"/><use xlink:href="#19" y="28.223"/><use xlink:href="#20" y="30.394"/><use xlink:href="#21" y="32.565"/></svg><svg x="5500"><use xlink:href="#a"/><use xlink:href="#b" x="24.996" y="34.711"/><use xlink:href="#4"/><use xlink:href="#7" y="2.171"/><use xlink:href="#8" y="4.342"/><use xlink:href="#9" y="6.513"/><use xlink:href="#10" y="8.684"/><use xlink:href="#11" y="10.855"/><use xlink:href="#12" y="13.026"/><use xlink:href="#13" y="15.197"/><use xlink:href="#14" y="17.368"/><use xlink:href="#15" y="19.539"/><use xlink:href="#16" y="21.71"/><use xlink:href="#17" y="23.881"/><use xlink:href="#18" y="26.052"/><use xlink:href="#19" y="28.223"/><use xlink:href="#20" y="30.394"/><use xlink:href="#21" y="32.565"/><text y="36.406" class="e">Checking</text><text x="9.018" y="36.406" class="e">[db_dbname]</text><text x="21.042" y="36.406" class="e">...</text></svg><svg x="5625"><use xlink:href="#a"/><use xlink:href="#b" x="33.996" y="36.882"/><use xlink:href="#4"/><use xlink:href="#7" y="2.171"/><use xlink:href="#8" y="4.342"/><use xlink:href="#9" y="6.513"/><use xlink:href="#10" y="8.684"/><use xlink:href="#11" y="10.855"/><use xlink:href="#12" y="13.026"/><use xlink:href="#13" y="15.197"/><use xlink:href="#14" y="17.368"/><use xlink:href="#15" y="19.539"/><use xlink:href="#16" y="21.71"/><use xlink:href="#17" y="23.881"/><use xlink:href="#18" y="26.052"/><use xlink:href="#19" y="28.223"/><use xlink:href="#20" y="30.394"/><use xlink:href="#21" y="32.565"/><use xlink:href="#22" y="34.736"/><text y="38.577" class="e">Checking</text><text x="9.018" y="38.577" class="e">[db_master_password]</text><text x="30.06" y="38.577" class="e">...</text></svg><svg x="5750"><use xlink:href="#a"/><use xlink:href="#b" x="29.996" y="39.053"/><use xlink:href="#4"/><use xlink:href="#7" y="2.171"/><use xlink:href="#8" y="4.342"/><use xlink:href="#9" y="6.513"/><use xlink:href="#10" y="8.684"/><use xlink:href="#11" y="10.855"/><use xlink:href="#12" y="13.026"/><use xlink:href="#13" y="15.197"/><use xlink:href="#14" y="17.368"/><use xlink:href="#15" y="19.539"/><use xlink:href="#16" y="21.71"/><use xlink:href="#17" y="23.881"/><use xlink:href="#18" y="26.052"/><use xlink:href="#19" y="28.223"/><use xlink:href="#20" y="30.394"/><use xlink:href="#21" y="32.565"/><use xlink:href="#22" y="34.736"/><use xlink:href="#23" y="36.907"/><text y="40.748" class="e">Checking</text><text x="9.018" y="40.748" class="e">[db_master_user]</text><text x="26.052" y="40.748" class="e">...</text></svg><svg x="5875"><use xlink:href="#a"/><use xlink:href="#b" x="-.004" y="41.224"/><use xlink:href="#4"/><use xlink:href="#7" y="2.171"/><use xlink:href="#8" y="4.342"/><use xlink:href="#9" y="6.513"/><use xlink:href="#10" y="8.684"/><use xlink:href="#11" y="10.855"/><use xlink:href="#12" y="13.026"/><use xlink:href="#13" y="15.197"/><use xlink:href="#14" y="17.368"/><use xlink:href="#15" y="19.539"/><use xlink:href="#16" y="21.71"/><use xlink:href="#17" y="23.881"/><use xlink:href="#18" y="26.052"/><use xlink:href="#19" y="28.223"/><use xlink:href="#20" y="30.394"/><use xlink:href="#21" y="32.565"/><use xlink:href="#22" y="34.736"/><use xlink:href="#23" y="36.907"/><use xlink:href="#24" y="39.078"/></svg><svg x="6000"><use xlink:href="#a"/><use xlink:href="#b" x="-.004" y="43.395"/><use xlink:href="#4"/><use xlink:href="#7" y="2.171"/><use xlink:href="#8" y="4.342"/><use xlink:href="#9" y="6.513"/><use xlink:href="#10" y="8.684"/><use xlink:href="#11" y="10.855"/><use xlink:href="#12" y="13.026"/><use xlink:href="#13" y="15.197"/><use xlink:href="#14" y="17.368"/><use xlink:href="#15" y="19.539"/><use xlink:href="#16" y="21.71"/><use xlink:href="#17" y="23.881"/><use xlink:href="#18" y="26.052"/><use xlink:href="#19" y="28.223"/><use xlink:href="#20" y="30.394"/><use xlink:href="#21" y="32.565"/><use xlink:href="#22" y="34.736"/><use xlink:href="#23" y="36.907"/><use xlink:href="#24" y="39.078"/><use xlink:href="#25" y="41.249"/></svg><svg x="6125"><use xlink:href="#a"/><use xlink:href="#b" x="-.004" y="43.395"/><use xlink:href="#8"/><use xlink:href="#9" y="2.171"/><use xlink:href="#10" y="4.342"/><use xlink:href="#11" y="6.513"/><use xlink:href="#12" y="8.684"/><use xlink:href="#13" y="10.855"/><use xlink:href="#14" y="13.026"/><use xlink:href="#15" y="15.197"/><use xlink:href="#16" y="17.368"/><use xlink:href="#17" y="19.539"/><use xlink:href="#18" y="21.71"/><use xlink:href="#19" y="23.881"/><use xlink:href="#20" y="26.052"/><use xlink:href="#21" y="28.223"/><use xlink:href="#22" y="30.394"/><use xlink:href="#23" y="32.565"/><use xlink:href="#24" y="34.736"/><use xlink:href="#25" y="36.907"/><use xlink:href="#26" y="39.078"/><use xlink:href="#27" y="41.249"/></svg><svg x="6250"><use xlink:href="#a"/><use xlink:href="#b" x="-.004" y="43.395"/><use xlink:href="#11"/><use xlink:href="#12" y="2.171"/><use xlink:href="#13" y="4.342"/><use xlink:href="#14" y="6.513"/><use xlink:href="#15" y="8.684"/><use xlink:href="#16" y="10.855"/><use xlink:href="#17" y="13.026"/><use xlink:href="#18" y="15.197"/><use xlink:href="#19" y="17.368"/><use xlink:href="#20" y="19.539"/><use xlink:href="#21" y="21.71"/><use xlink:href="#22" y="23.881"/><use xlink:href="#23" y="26.052"/><use xlink:href="#24" y="28.223"/><use xlink:href="#25" y="30.394"/><use xlink:href="#26" y="32.565"/><use xlink:href="#27" y="34.736"/><use xlink:href="#28" y="36.907"/><use xlink:href="#29" y="39.078"/><use xlink:href="#30" y="41.249"/></svg><svg x="6375"><use xlink:href="#a"/><use xlink:href="#b" x="14.996" y="43.395"/><use xlink:href="#11"/><use xlink:href="#12" y="2.171"/><use xlink:href="#13" y="4.342"/><use xlink:href="#14" y="6.513"/><use xlink:href="#15" y="8.684"/><use xlink:href="#16" y="10.855"/><use xlink:href="#17" y="13.026"/><use xlink:href="#18" y="15.197"/><use xlink:href="#19" y="17.368"/><use xlink:href="#20" y="19.539"/><use xlink:href="#21" y="21.71"/><use xlink:href="#22" y="23.881"/><use xlink:href="#23" y="26.052"/><use xlink:href="#24" y="28.223"/><use xlink:href="#25" y="30.394"/><use xlink:href="#26" y="32.565"/><use xlink:href="#27" y="34.736"/><use xlink:href="#28" y="36.907"/><use xlink:href="#29" y="39.078"/><use xlink:href="#30" y="41.249"/><text y="45.09" class="e">Proceed</text><text x="8.016" y="45.09" class="e">(Y/n)?</text></svg><svg x="6500"><use xlink:href="#a"/><use xlink:href="#b" x="15.996" y="43.395"/><use xlink:href="#11"/><use xlink:href="#12" y="2.171"/><use xlink:href="#13" y="4.342"/><use xlink:href="#14" y="6.513"/><use xlink:href="#15" y="8.684"/><use xlink:href="#16" y="10.855"/><use xlink:href="#17" y="13.026"/><use xlink:href="#18" y="15.197"/><use xlink:href="#19" y="17.368"/><use xlink:href="#20" y="19.539"/><use xlink:href="#21" y="21.71"/><use xlink:href="#22" y="23.881"/><use xlink:href="#23" y="26.052"/><use xlink:href="#24" y="28.223"/><use xlink:href="#25" y="30.394"/><use xlink:href="#26" y="32.565"/><use xlink:href="#27" y="34.736"/><use xlink:href="#28" y="36.907"/><use xlink:href="#29" y="39.078"/><use xlink:href="#30" y="41.249"/><use xlink:href="#31" y="43.42"/></svg><svg x="6625"><use xlink:href="#a"/><use xlink:href="#b" x="15.996" y="43.395"/><use xlink:href="#11"/><use xlink:href="#12" y="2.171"/><use xlink:href="#13" y="4.342"/><use xlink:href="#14" y="6.513"/><use xlink:href="#15" y="8.684"/><use xlink:href="#16" y="10.855"/><use xlink:href="#17" y="13.026"/><use xlink:href="#18" y="15.197"/><use xlink:href="#19" y="17.368"/><use xlink:href="#20" y="19.539"/><use xlink:href="#21" y="21.71"/><use xlink:href="#22" y="23.881"/><use xlink:href="#23" y="26.052"/><use xlink:href="#24" y="28.223"/><use xlink:href="#25" y="30.394"/><use xlink:href="#26" y="32.565"/><use xlink:href="#27" y="34.736"/><use xlink:href="#28" y="36.907"/><use xlink:href="#29" y="39.078"/><use xlink:href="#30" y="41.249"/><use xlink:href="#31" y="43.42"/></svg><svg x="6750"><use xlink:href="#a"/><use xlink:href="#b" x="15.996" y="43.395"/><use xlink:href="#11"/><use xlink:href="#12" y="2.171"/><use xlink:href="#13" y="4.342"/><use xlink:href="#14" y="6.513"/><use xlink:href="#15" y="8.684"/><use xlink:href="#16" y="10.855"/><use xlink:href="#17" y="13.026"/><use xlink:href="#18" y="15.197"/><use xlink:href="#19" y="17.368"/><use xlink:href="#20" y="19.539"/><use xlink:href="#21" y="21.71"/><use xlink:href="#22" y="23.881"/><use xlink:href="#23" y="26.052"/><use xlink:href="#24" y="28.223"/><use xlink:href="#25" y="30.394"/><use xlink:href="#26" y="32.565"/><use xlink:href="#27" y="34.736"/><use xlink:href="#28" y="36.907"/><use xlink:href="#29" y="39.078"/><use xlink:href="#30" y="41.249"/><use xlink:href="#31" y="43.42"/></svg><svg x="6875"><use xlink:href="#a"/><use xlink:href="#b" x="1.996" y="43.395"/><use xlink:href="#13"/><use xlink:href="#14" y="2.171"/><use xlink:href="#15" y="4.342"/><use xlink:href="#16" y="6.513"/><use xlink:href="#17" y="8.684"/><use xlink:href="#18" y="10.855"/><use xlink:href="#19" y="13.026"/><use xlink:href="#20" y="15.197"/><use xlink:href="#21" y="17.368"/><use xlink:href="#22" y="19.539"/><use xlink:href="#23" y="21.71"/><use xlink:href="#24" y="23.881"/><use xlink:href="#25" y="26.052"/><use xlink:href="#26" y="28.223"/><use xlink:href="#27" y="30.394"/><use xlink:href="#28" y="32.565"/><use xlink:href="#29" y="34.736"/><use xlink:href="#30" y="36.907"/><use xlink:href="#31" y="39.078"/><use xlink:href="#32" y="41.249"/><use xlink:href="#5" y="43.42"/></svg><svg x="7000"><use xlink:href="#a"/><use xlink:href="#b" x="-.004" y="43.395"/><use xlink:href="#15"/><use xlink:href="#16" y="2.171"/><use xlink:href="#17" y="4.342"/><use xlink:href="#18" y="6.513"/><use xlink:href="#19" y="8.684"/><use xlink:href="#20" y="10.855"/><use xlink:href="#21" y="13.026"/><use xlink:href="#22" y="15.197"/><use xlink:href="#23" y="17.368"/><use xlink:href="#24" y="19.539"/><use xlink:href="#25" y="21.71"/><use xlink:href="#26" y="23.881"/><use xlink:href="#27" y="26.052"/><use xlink:href="#28" y="28.223"/><use xlink:href="#29" y="30.394"/><use xlink:href="#30" y="32.565"/><use xlink:href="#31" y="34.736"/><use xlink:href="#32" y="36.907"/><use xlink:href="#5" y="39.078"/><text y="42.919" class="c">exit</text></svg></svg></g></g></svg></svg>